<svg xmlns="http://www.w3.org/2000/svg" viewBox="0 0 1200 1200"><path d="m1087 246 0 0c28 17 38 54 22 82l-164 284 -99 -57 8 -14c22 -38 9 -88 -29 -110l0 0a80 80 0 0 0 -40 -11c-28 0 -55 14 -70 40l-8 14 -99 -57 67 -115c5 -9 2 -21 -7 -26l-31 -18c-20 -12 -27 -38 -15 -58 8 -14 22 -21 37 -21a42 42 0 0 1 21 6l31 18a19 19 0 0 0 10 3c7 0 13 -3 17 -10l67 -115zM795 37h0a19 19 0 0 0 -16 9l-67 115 -14 -8c-13 -7 -26 -11 -40 -11 -28 0 -55 14 -70 40 -22 38 -9 88 29 110l14 8 -67 115c-5 9 -2 20 7 26l132 76a19 19 0 0 0 10 3c7 0 13 -3 17 -10l18 -31c8 -14 22 -21 37 -21 7 0 14 2 21 6l0 0c20 12 27 38 16 58l-18 31c-5 9 -2 21 7 26l132 76a19 19 0 0 0 10 3c7 0 13 -3 17 -10l177 -307c25 -44 6 -103 -39 -129l-301 -174c-3 -2 -6 -2 -10 -2zM457 309v0l0 114 -16 0c-44 0 -80 36 -80 80 0 44 36 80 80 80l16 0 0 114 -133 0c-11 0 -19 9 -19 19l0 35c0 23 -19 42 -42 42 -23 0 -42 -19 -42 -42l0 -35c0 -11 -9 -19 -19 -19l-133 0V369c0 -33 27 -60 61 -60zm233 330h0c23 0 42 19 42 42l0 35c0 11 9 19 19 19l133 0v328c0 33 -27 60 -60 61l-329 0v-114l16 0c44 0 80 -36 80 -80s-36 -80 -80 -80h-16l0 -114 133 0c11 0 19 -9 19 -19l0 -35c0 -23 19 -42 42 -42zM182 753v0c0 44 36 80 80 80 44 0 80 -36 80 -80v-16l114 0 0 133c0 11 9 19 19 19l35 0c23 0 42 19 42 42s-19 42 -42 42l-35 0c-11 0 -19 9 -19 19v133l-328 0c-33 0 -60 -27 -61 -60v-329l114 0zm-53 -481h0c-55 0 -99 44 -99 99v695c0 55 44 99 99 99l695 0c55 0 99 -44 99 -99v-347c0 -11 -9 -19 -19 -19l-133 0 0 -16c0 -44 -36 -80 -80 -80s-80 36 -80 80v16l-114 0 0 -133c0 -11 -9 -19 -19 -19l-35 0c-23 0 -42 -19 -42 -42 0 -23 19 -42 42 -42h35c11 0 19 -9 19 -19l0 -152c0 -10 -9 -19 -19 -19z"/></svg>